<svg xmlns="http://www.w3.org/2000/svg" width="64" height="64" viewBox="0 0 64 64">
  <defs>
    <linearGradient id="bg" x1="0" y1="0" x2="0" y2="1">
      <stop offset="0" stop-color="#4a9dff"/>
      <stop offset="0.55" stop-color="#147bf5"/>
      <stop offset="1" stop-color="#0a5bd0"/>
    </linearGradient>
    <linearGradient id="gloss" x1="0" y1="0" x2="0" y2="1">
      <stop offset="0" stop-color="#ffffff" stop-opacity="0.32"/>
      <stop offset="1" stop-color="#ffffff" stop-opacity="0.03"/>
    </linearGradient>
  </defs>
  <rect x="4" y="4" width="56" height="56" rx="13" fill="url(#bg)"/>
  <path fill="#ffffff" fill-rule="evenodd" d="M21 18h9a14 14 0 0 1 0 28h-9zm7 7v14h2a7 7 0 0 0 0-14z"/>
  <path fill="url(#gloss)" d="M4 17C4 9.8 9.8 4 17 4h30c7.2 0 13 5.8 13 13v10c-9-4.5-18.5-6.8-28-6.8S13 22.5 4 27z"/>
</svg>
